<svg width="529" height="113" viewBox="0 0 529 113" fill="none" xmlns="http://www.w3.org/2000/svg">
<g clip-path="url(#clip0)">
<path d="M117.686 90.6634H129.105V29.7634H159.397V90.6634H170.815V20.7251H117.686V90.6634ZM358.22 41.1278C342.739 41.1278 333.638 50.5445 333.638 66.3511C333.638 82.1576 342.739 91.5743 358.22 91.5743C373.701 91.5743 382.803 82.1576 382.803 66.3511C382.803 50.5445 373.701 41.1278 358.22 41.1278ZM358.22 82.8022C349.845 82.8022 344.777 76.6786 344.777 66.3791C344.777 56.0796 349.803 49.97 358.22 49.97C366.638 49.97 371.663 56.0796 371.663 66.3791C371.663 76.6786 366.638 82.8022 358.22 82.8022ZM203.271 41.1278C187.79 41.1278 178.702 50.5445 178.702 66.3511C178.702 82.1576 187.79 91.5743 203.271 91.5743C218.752 91.5743 227.853 82.1576 227.853 66.3511C227.853 50.5445 218.822 41.1278 203.341 41.1278H203.271ZM203.271 82.8022C194.895 82.8022 189.828 76.6786 189.828 66.3791C189.828 56.0796 194.853 49.97 203.271 49.97C211.688 49.97 216.728 56.0796 216.728 66.3791C216.728 76.6786 211.758 82.8022 203.341 82.8022H203.271ZM276.488 42.0387H239.551L238.155 65.8606C237.583 75.2913 234.582 80.3359 229.249 82.7742V95.4979C229.249 99.7018 232.558 102.014 240.194 100.837V90.6634H271.058V95.5259C271.058 99.7298 274.352 102.042 281.988 100.865V82.4098H276.404L276.488 42.0387ZM265.558 82.3538H242.553C245.896 78.3044 247.772 73.2353 247.871 67.9765L248.848 50.4464H265.488L265.558 82.3538ZM319.86 65.5383C324.787 63.3943 327.51 59.807 327.51 55.0426C327.51 46.2005 320.251 41.0298 307.855 41.0298C301.434 41.0057 295.016 41.3426 288.633 42.0387V90.6634C295.479 91.3434 302.357 91.6661 309.237 91.6303C321.912 91.6303 329.366 86.1933 329.366 77.0709C329.366 71.4658 325.988 67.5422 319.762 65.6084L319.86 65.5383ZM299.563 49.3814C302.076 49.2834 304.784 49.2833 307.938 49.2833C313.452 49.2833 316.747 51.9038 316.747 56.0796C316.747 60.2554 313.452 62.8759 307.938 62.8759H299.563V49.3814ZM309.334 83.4748C305.761 83.4748 302.564 83.3767 299.563 83.2786V68.8033H309.334C315.044 68.8033 318.534 71.5218 318.534 75.9919C318.534 80.462 315.044 83.4748 309.334 83.4748ZM417.171 41.1278C413.98 41.0807 410.825 41.7971 407.965 43.2178C405.106 44.6385 402.624 46.7225 400.727 49.2974C400.727 38.087 400.224 29.7634 396.385 25.0971C395.115 23.6912 393.563 22.5711 391.83 21.8103C390.098 21.0496 388.225 20.6654 386.334 20.683H386.223C384.45 20.6752 382.699 21.0709 381.101 21.8403C379.503 22.6097 378.099 23.7328 376.996 25.1251C375.744 26.6426 374.843 28.4207 374.361 30.3305C373.878 32.2403 373.824 34.2341 374.204 36.1673C374.804 38.8297 376.619 42.5151 381.867 45.0655L386.669 35.1163C386.219 35.0982 385.793 34.9057 385.48 34.5791C385.168 34.2526 384.994 33.8174 384.994 33.3647C384.998 32.8976 385.184 32.4506 385.513 32.1203C385.843 31.7899 386.288 31.6027 386.753 31.5991C388.512 31.5991 388.819 34.2335 388.959 34.9482C389.555 39.0823 389.83 43.2567 389.782 47.4336V113.014H400.713V91.3501C404.3 91.5462 407.776 91.6303 410.303 91.6303C426.551 91.6303 436.128 81.9194 436.128 65.4122C436.03 50.1521 428.883 41.1278 417.171 41.1278ZM409.326 83.2786C406.813 83.2786 403.742 83.1805 400.615 83.0825V64.5294C400.615 54.4261 406.911 49.97 413.388 49.97C420.842 49.97 424.904 55.7013 424.904 65.3842C424.904 76.6786 418.999 83.2786 409.326 83.2786ZM508.842 83.1805C501.388 83.1805 497.326 78.9767 496.348 71.5218C499.446 72.1072 502.591 72.4027 505.743 72.4046C519.702 72.4046 528.078 66.6733 528.078 56.9904C528.078 47.3075 521.405 41.1559 509.931 41.1559C494.576 41.1559 485.446 51.063 485.446 67.7804C485.446 82.8442 493.822 91.6023 508.088 91.6023C515.089 91.7874 521.989 89.8962 527.924 86.1653L523.569 79.1588C519.157 81.9144 514.037 83.3125 508.842 83.1805ZM508.842 49.7738C514.258 49.7738 517.455 52.6885 517.455 57.4389C517.455 62.5956 513.1 65.7065 505.645 65.7065C502.501 65.7113 499.361 65.4818 496.251 65.0198C496.935 55.407 501.583 49.7738 508.842 49.7738ZM460.919 58.4198C458.504 58.4198 456.271 58.5178 453.94 58.6019V47.7419C453.94 43.5381 450.924 41.2259 442.996 42.403V90.6634C448.971 91.3138 454.978 91.6366 460.989 91.6303C474.446 91.6303 482.375 85.4226 482.375 75.025C482.375 64.6275 474.474 58.4198 460.919 58.4198ZM461.017 83.7691C458.504 83.7691 456.173 83.7691 453.954 83.671V66.4772C456.173 66.3791 458.504 66.281 460.933 66.281C467.522 66.281 471.487 69.588 471.487 75.025C471.487 80.462 467.592 83.7691 461.017 83.7691ZM101.046 69.3358L102.233 18.8894H90.828L92.0146 69.4059L101.046 69.3358ZM71.7316 13.2842L76.9245 22.0283C82.5082 18.7212 83.3877 14.2791 83.4575 11.925C83.5052 10.0297 83.0885 8.15171 82.2438 6.456C81.3992 4.7603 80.1526 3.29882 78.6135 2.20001C77.1895 1.18734 75.5591 0.504884 73.8403 0.20196C72.1214 -0.100964 70.357 -0.01679 68.6745 0.4484C66.5362 1.12262 64.571 2.25854 62.9166 3.77638C61.2623 5.29422 59.959 7.1572 59.0983 9.23449C58.0315 11.5954 57.4295 14.1411 57.3255 16.7314C47.3172 12.55 36.0802 12.4457 25.9966 16.4405C15.9131 20.4353 7.77574 28.2152 3.30977 38.1309C-1.1562 48.0465 -1.59969 59.3183 2.07333 69.5566C5.74634 79.795 13.2471 88.1949 22.9854 92.9756C28.8018 95.9448 35.2354 97.4909 41.7608 97.4877C50.1087 97.4943 58.2667 94.9871 65.1801 90.2902C72.0936 85.5932 77.4445 78.9226 80.5413 71.1405C83.638 63.3584 84.3381 54.8228 82.5511 46.6371C80.7641 38.4514 76.5721 30.992 70.5171 25.2232C67.9207 21.6779 66.2316 18.2168 68.3813 13.4103C69.1072 11.8129 70.5031 10.2014 71.7455 10.2014C71.9404 10.1995 72.1336 10.2366 72.314 10.3106C72.4944 10.3846 72.6582 10.494 72.796 10.6323C72.9338 10.7706 73.0427 10.9351 73.1164 11.1161C73.1901 11.2972 73.2271 11.4912 73.2252 11.6867C73.2289 11.8837 73.1939 12.0794 73.1223 12.2627C73.0506 12.446 72.9437 12.6134 72.8076 12.7552C72.6714 12.8971 72.5088 13.0106 72.329 13.0894C72.1492 13.1681 71.9557 13.2105 71.7595 13.2141L71.7316 13.2842ZM69.8889 41.4922C72.2912 46.3018 73.4268 51.6487 73.1876 57.0236C72.9484 62.3985 71.3424 67.6225 68.5225 72.1979C65.7027 76.7734 61.7628 80.548 57.0783 83.1621C52.3937 85.7763 47.1205 87.1431 41.7608 87.1322C36.8508 87.1401 32.0091 85.9779 27.6339 83.7411C21.3291 80.5416 16.283 75.3019 13.3107 68.8684C10.3383 62.435 9.61347 55.1835 11.2531 48.2855C12.8928 41.3874 16.8012 35.2457 22.347 30.8526C27.8927 26.4594 34.752 24.0713 41.8166 24.0741C44.9171 24.0786 47.9994 24.551 50.96 25.4754C47.865 26.1416 44.9023 27.3208 42.1935 28.9646C35.6186 32.9583 31.3889 38.7737 30.3001 45.3457C29.805 48.114 29.9143 50.9572 30.6204 53.6789C31.3266 56.4006 32.6128 58.9361 34.3902 61.1102C36.0456 63.1235 38.1154 64.7534 40.4575 65.8878C42.7997 67.0223 45.3586 67.6344 47.9587 67.6823C50.71 67.6874 53.413 66.9571 55.7899 65.5663C59.7684 63.2682 64.4587 57.0465 62.4207 50.4604C61.8675 48.696 60.9157 47.0837 59.6397 45.7492C58.3636 44.4148 56.7977 43.3943 55.0641 42.7673C53.276 42.1925 51.3792 42.0426 49.5236 42.3296C47.6679 42.6165 45.904 43.3325 44.3712 44.4209L50.0247 52.5203C50.1728 52.3367 50.3571 52.1859 50.5661 52.0773C50.7752 51.9688 51.0043 51.9049 51.2392 51.8897C52.8445 51.8897 53.7798 55.1828 50.5552 57.1166C47.3306 59.0503 44.1059 57.0045 42.1795 54.8044C41.3326 53.6954 40.7282 52.4195 40.4059 51.0601C40.0835 49.7007 40.0505 48.2883 40.309 46.9152C40.7557 44.2807 42.361 40.4692 47.5539 37.3303C49.6369 36.0233 51.9794 35.1893 54.4173 34.8867C56.8552 34.5841 59.3295 34.8203 61.6669 35.5787C65.0041 36.5406 67.9084 38.6294 69.8889 41.4922ZM96.5235 77.0709C95.016 77.0709 93.5424 77.5197 92.289 78.3604C91.0356 79.2011 90.0587 80.396 89.4818 81.794C88.9049 83.1921 88.754 84.7305 89.0481 86.2146C89.3422 87.6988 90.0681 89.062 91.134 90.1321C92.1999 91.2021 93.558 91.9308 95.0365 92.226C96.515 92.5212 98.0475 92.3697 99.4402 91.7906C100.833 91.2115 102.023 90.2309 102.861 88.9727C103.698 87.7144 104.145 86.2352 104.145 84.722C104.147 83.7167 103.951 82.721 103.569 81.7919C103.186 80.8628 102.625 80.0186 101.917 79.3077C101.209 78.5969 100.368 78.0334 99.4424 77.6496C98.5168 77.2657 97.5249 77.0691 96.5235 77.0709Z" fill="#79B943"/>
</g>
<defs>
<clipPath id="clip0">
<rect width="528" height="113" fill="white" transform="translate(0.0919189)"/>
</clipPath>
</defs>
</svg>
