<svg width="833" height="160" viewBox="0 0 833 160" fill="none" xmlns="http://www.w3.org/2000/svg">
<path d="M832.592 72.0899C832.485 94.7499 820.883 116.568 800.711 131.843C780.338 147.215 753 155.363 721.6 155.215L0.202034 155.215L0.202183 112.206L721.794 113.934C760.994 114.119 784.372 97.4794 789.557 79.4739C791.181 74.2598 791.425 64.9997 790.146 60.4616C787.391 50.9904 779.225 43.6612 768.825 43.6123C762.99 43.5849 757.384 45.8422 753.239 49.8876C749.094 53.933 746.75 59.4352 746.723 65.1837C746.72 65.8733 746.598 70.5034 746.592 71.7842L704.593 71.5867C704.782 31.3899 730.514 3.43165 767.113 3.6037C807.714 3.5975 832.79 29.9226 832.592 72.0899Z" fill="#FF8300"/>
</svg>
