<svg width="470" height="439" viewBox="0 0 470 439" fill="none" xmlns="http://www.w3.org/2000/svg">
<path d="M171.876 115.769C154.254 118.651 133.382 122.739 118.657 132.432C103.933 142.125 91.5884 154.767 82.4802 169.481C64.4538 197.873 59.6184 228.539 68.9439 255.82C72.7258 267.384 79.0855 278.027 87.5838 287.013C96.0822 295.999 106.517 303.115 118.167 307.87C128.993 312.253 140.681 314.344 152.428 313.998C164.176 313.653 175.704 310.879 186.222 305.867C197.257 300.39 206.566 292.199 213.193 282.138C224.348 265.41 230.183 232.272 208.299 211.185C202.417 205.4 195.168 201.054 187.164 198.512C179.159 195.971 170.634 195.309 162.309 196.583C153.983 197.857 146.101 201.029 139.329 205.831C132.557 210.633 127.093 216.925 123.398 224.174L162.921 243.819C163.131 242.822 163.556 241.878 164.167 241.045C164.779 240.213 165.564 239.511 166.473 238.984C172.906 235.777 183.512 246.488 174.619 260.317C165.726 274.147 148.545 272.774 136.244 268.219C130.54 265.674 125.461 262.008 121.338 257.459C117.215 252.91 114.141 247.58 112.317 241.818C108.62 230.862 107.113 213.095 121.383 190.729C127.007 181.574 134.655 173.708 143.793 167.682C152.931 161.655 163.338 157.614 174.283 155.841C193.835 152.56 274.419 181.781 274.419 201.872L274.419 144.948C254.41 127.727 204.653 110.386 171.876 115.769Z" fill="#80BC00"/>
<path d="M227.614 16.8447C221.141 12.5151 213.743 9.6188 205.956 8.3658C198.17 7.1128 190.189 7.53451 182.594 9.60036C172.936 12.505 164.059 17.3987 156.586 23.9378C149.114 30.4769 143.227 38.5029 139.339 47.4522C116.136 96.5328 146.212 133.358 159.075 149.115L195.331 122.009C181.207 104.683 170.424 88.5037 181.27 65.5631C184.548 58.681 190.854 51.7385 196.466 51.7385C197.346 51.7304 198.218 51.8904 199.033 52.2091C199.848 52.5279 200.588 52.9989 201.21 53.5948C201.833 54.1906 202.325 54.8993 202.658 55.6793C202.99 56.4593 203.158 57.2951 203.149 58.1377C203.153 59.7801 202.503 61.3622 201.332 62.5621C200.16 63.7621 198.556 64.4898 196.844 64.5972L220.3 102.268C245.521 88.0207 249.493 68.8835 249.809 58.7414C249.989 50.5495 248.058 42.4413 244.187 35.1339C240.316 27.8264 234.624 21.5448 227.614 16.8447Z" fill="#80BC00"/>
</svg>
