<svg width="197" height="390" viewBox="0 0 197 390" fill="none" xmlns="http://www.w3.org/2000/svg">
<g clip-path="url(#clip0)">
<path d="M140.598 0C121.852 0 103.757 9.37696 91.0422 25.7663C78.2458 42.3186 71.3993 64.5787 71.3993 90.1819V390H105.55V90.1819C105.55 58.2187 119.406 39.2202 134.322 35.0617C138.642 33.7571 146.303 33.594 150.053 34.654C157.877 36.9371 163.909 43.6233 163.909 52.1033C163.909 56.8609 162.019 61.4236 158.657 64.7877C155.294 68.1519 150.733 70.0418 145.977 70.0418C145.407 70.0418 141.576 70.1234 140.516 70.1234V104.37C173.771 104.37 197 83.4957 197 53.6525C197.163 20.5478 175.482 0 140.598 0V0Z" fill="#FF8300"/>
<g filter="url(#filter0_d)">
<path d="M71.5623 196.753C61.8631 196.753 52.5714 201.645 45.9694 210.125C39.2044 218.85 35.6182 230.673 35.6182 244.209V390H50.2892V244.209C50.2892 222.927 61.211 211.43 71.4808 211.43H74.6595C77.8156 211.43 80.8424 212.684 83.074 214.917C85.3057 217.149 86.5594 220.177 86.5594 223.335C86.5594 226.492 85.3057 229.52 83.074 231.753C80.8424 233.985 77.8156 235.239 74.6595 235.239C74.4965 235.239 72.4589 235.402 71.4808 235.402V250.079C88.5156 250.079 100.415 239.479 100.415 224.313C100.497 207.272 89.4121 196.753 71.5623 196.753Z" fill="white"/>
</g>
<path d="M153.72 389.755H150.297V287.098C150.297 277.558 152.742 269.241 157.47 263.289C161.789 257.744 167.821 254.483 174.015 254.483C185.671 254.483 192.354 260.761 192.354 271.606C192.354 281.146 184.937 287.506 174.015 287.506V284.081C180.943 284.081 188.931 280.82 188.931 271.606C188.931 262.636 183.796 257.907 174.015 257.907C160.811 257.907 153.72 272.91 153.72 287.098V389.755Z" fill="#4A8B2C"/>
<path d="M89.0861 79.3372C81.18 71.428 69.9322 67.4326 55.6686 67.4326C40.6715 67.4326 26.2449 75.0157 16.0567 88.1434C5.54241 101.679 0 119.944 0 140.981V389.755H22.7402V140.981C22.7402 107.957 39.6934 90.5896 55.6686 90.1819C73.3554 89.6927 78.6533 98.4989 78.6533 108.528C78.6518 113.107 76.9209 117.517 73.8074 120.874C70.6939 124.23 66.4276 126.286 61.8631 126.63C59.8162 126.971 57.7436 127.135 55.6686 127.119V149.868C82.0765 149.868 100.578 133.397 100.578 109.914C100.497 97.3573 96.5846 86.7573 89.0861 79.3372V79.3372Z" fill="#4A8B2C"/>
<path d="M124.282 324.57L124.27 324.563L124.257 324.557C122.756 323.885 121.123 323.563 119.479 323.617C115.784 323.62 112.977 325.87 111.119 329.052C109.263 332.232 108.311 336.401 108.311 340.424V389.5H102.79V340.424C102.79 333.985 104.48 328.395 107.654 324.345C110.753 320.451 115.099 318.175 119.488 318.175C123.718 318.175 127.047 319.352 129.305 321.455C131.557 323.554 132.802 326.63 132.762 330.553H132.762V330.558C132.762 334.008 131.414 336.928 129.099 338.991C126.878 340.971 123.739 342.184 119.988 342.282V336.758C122.513 336.674 124.413 335.955 125.707 334.817C127.089 333.601 127.731 331.95 127.731 330.232V330.231C127.729 329.062 127.406 327.916 126.798 326.918C126.19 325.919 125.32 325.107 124.282 324.57Z" fill="white" stroke="#4A8B2C"/>
</g>
<defs>
<filter id="filter0_d" x="31.6182" y="196.753" width="72.7977" height="201.247" filterUnits="userSpaceOnUse" color-interpolation-filters="sRGB">
<feFlood flood-opacity="0" result="BackgroundImageFix"/>
<feColorMatrix in="SourceAlpha" type="matrix" values="0 0 0 0 0 0 0 0 0 0 0 0 0 0 0 0 0 0 127 0"/>
<feOffset dy="4"/>
<feGaussianBlur stdDeviation="2"/>
<feColorMatrix type="matrix" values="0 0 0 0 0 0 0 0 0 0 0 0 0 0 0 0 0 0 0.25 0"/>
<feBlend mode="normal" in2="BackgroundImageFix" result="effect1_dropShadow"/>
<feBlend mode="normal" in="SourceGraphic" in2="effect1_dropShadow" result="shape"/>
</filter>
<clipPath id="clip0">
<rect width="197" height="390" fill="white"/>
</clipPath>
</defs>
</svg>
